<mxfile host="app.diagrams.net" modified="2022-04-01T22:56:44.051Z" agent="5.0 (Macintosh; Intel Mac OS X 10_15_7) AppleWebKit/537.36 (KHTML, like Gecko) Chrome/99.0.4844.83 Safari/537.36" etag="JQB-q5yGzb7H0rTO33R2" version="17.2.4" type="github" pages="3">
  <diagram id="LlKktqIb9uknwn_X3MoD" name="Cad-Pessoa">
    <mxGraphModel dx="1426" dy="739" grid="1" gridSize="10" guides="1" tooltips="1" connect="1" arrows="1" fold="1" page="1" pageScale="1" pageWidth="850" pageHeight="1100" math="0" shadow="0">
      <root>
        <mxCell id="0" />
        <mxCell id="1" parent="0" />
        <mxCell id="oY9YBYQD92hxkGcXl7jA-1" value="Módulo de Informações Cadastrais" style="swimlane;" parent="1" vertex="1">
          <mxGeometry x="100" y="40" width="650" height="480" as="geometry" />
        </mxCell>
        <mxCell id="oY9YBYQD92hxkGcXl7jA-2" value="Admin" style="shape=umlActor;verticalLabelPosition=bottom;verticalAlign=top;html=1;outlineConnect=0;" parent="oY9YBYQD92hxkGcXl7jA-1" vertex="1">
          <mxGeometry x="20" y="240" width="30" height="60" as="geometry" />
        </mxCell>
        <mxCell id="oY9YBYQD92hxkGcXl7jA-5" value="Caso de Uso: Cadastro de Pessoa [CRUD*]" style="swimlane;" parent="oY9YBYQD92hxkGcXl7jA-1" vertex="1">
          <mxGeometry x="70" y="30" width="570" height="440" as="geometry" />
        </mxCell>
        <mxCell id="oY9YBYQD92hxkGcXl7jA-6" value="Cadastra Categoria de Pessoa" style="ellipse;whiteSpace=wrap;html=1;align=center;newEdgeStyle={&quot;edgeStyle&quot;:&quot;entityRelationEdgeStyle&quot;,&quot;startArrow&quot;:&quot;none&quot;,&quot;endArrow&quot;:&quot;none&quot;,&quot;segment&quot;:10,&quot;curved&quot;:1};treeFolding=1;treeMoving=1;" parent="oY9YBYQD92hxkGcXl7jA-5" vertex="1">
          <mxGeometry x="10" y="90" width="100" height="60" as="geometry" />
        </mxCell>
        <mxCell id="oY9YBYQD92hxkGcXl7jA-7" value="Cadastra&lt;br&gt;Pessoa" style="ellipse;whiteSpace=wrap;html=1;align=center;newEdgeStyle={&quot;edgeStyle&quot;:&quot;entityRelationEdgeStyle&quot;,&quot;startArrow&quot;:&quot;none&quot;,&quot;endArrow&quot;:&quot;none&quot;,&quot;segment&quot;:10,&quot;curved&quot;:1};treeFolding=1;treeMoving=1;" parent="oY9YBYQD92hxkGcXl7jA-5" vertex="1">
          <mxGeometry x="155" y="310" width="100" height="60" as="geometry" />
        </mxCell>
        <mxCell id="oY9YBYQD92hxkGcXl7jA-8" value="Cadastra&lt;br&gt;Perfil" style="ellipse;whiteSpace=wrap;html=1;align=center;newEdgeStyle={&quot;edgeStyle&quot;:&quot;entityRelationEdgeStyle&quot;,&quot;startArrow&quot;:&quot;none&quot;,&quot;endArrow&quot;:&quot;none&quot;,&quot;segment&quot;:10,&quot;curved&quot;:1};treeFolding=1;treeMoving=1;" parent="oY9YBYQD92hxkGcXl7jA-5" vertex="1">
          <mxGeometry x="420" y="310" width="100" height="60" as="geometry" />
        </mxCell>
        <mxCell id="oY9YBYQD92hxkGcXl7jA-9" value="Cadastra&lt;br&gt;Localidade" style="ellipse;whiteSpace=wrap;html=1;align=center;newEdgeStyle={&quot;edgeStyle&quot;:&quot;entityRelationEdgeStyle&quot;,&quot;startArrow&quot;:&quot;none&quot;,&quot;endArrow&quot;:&quot;none&quot;,&quot;segment&quot;:10,&quot;curved&quot;:1};treeFolding=1;treeMoving=1;" parent="oY9YBYQD92hxkGcXl7jA-5" vertex="1">
          <mxGeometry x="160" y="90" width="100" height="60" as="geometry" />
        </mxCell>
        <mxCell id="oY9YBYQD92hxkGcXl7jA-15" value="Use" style="endArrow=open;endSize=12;dashed=1;html=1;rounded=0;exitX=0.5;exitY=0;exitDx=0;exitDy=0;entryX=0.5;entryY=0;entryDx=0;entryDy=0;" parent="oY9YBYQD92hxkGcXl7jA-5" source="oY9YBYQD92hxkGcXl7jA-6" target="oY9YBYQD92hxkGcXl7jA-8" edge="1">
          <mxGeometry x="-0.2877" width="160" relative="1" as="geometry">
            <mxPoint x="350" y="50" as="sourcePoint" />
            <mxPoint x="400" y="230" as="targetPoint" />
            <Array as="points">
              <mxPoint x="60" y="30" />
              <mxPoint x="480" y="30" />
            </Array>
            <mxPoint as="offset" />
          </mxGeometry>
        </mxCell>
        <mxCell id="oY9YBYQD92hxkGcXl7jA-16" value="Use" style="endArrow=open;endSize=12;dashed=1;html=1;rounded=0;exitX=0.5;exitY=0;exitDx=0;exitDy=0;entryX=0.5;entryY=0;entryDx=0;entryDy=0;" parent="oY9YBYQD92hxkGcXl7jA-5" source="oY9YBYQD92hxkGcXl7jA-10" target="oY9YBYQD92hxkGcXl7jA-8" edge="1">
          <mxGeometry x="-0.6571" width="160" relative="1" as="geometry">
            <mxPoint x="260" y="160" as="sourcePoint" />
            <mxPoint x="390" y="250" as="targetPoint" />
            <Array as="points">
              <mxPoint x="360" y="70" />
              <mxPoint x="460" y="70" />
            </Array>
            <mxPoint as="offset" />
          </mxGeometry>
        </mxCell>
        <mxCell id="oY9YBYQD92hxkGcXl7jA-23" value="Use" style="endArrow=open;endSize=12;dashed=1;html=1;rounded=0;startArrow=none;exitX=0;exitY=0.5;exitDx=0;exitDy=0;entryX=1;entryY=0.5;entryDx=0;entryDy=0;" parent="oY9YBYQD92hxkGcXl7jA-5" source="oY9YBYQD92hxkGcXl7jA-8" target="oY9YBYQD92hxkGcXl7jA-7" edge="1">
          <mxGeometry width="160" relative="1" as="geometry">
            <mxPoint x="200" y="280" as="sourcePoint" />
            <mxPoint x="330" y="170" as="targetPoint" />
          </mxGeometry>
        </mxCell>
        <mxCell id="oY9YBYQD92hxkGcXl7jA-21" value="Use" style="endArrow=open;endSize=12;dashed=1;html=1;rounded=0;exitX=0.5;exitY=0;exitDx=0;exitDy=0;entryX=0.5;entryY=0;entryDx=0;entryDy=0;" parent="oY9YBYQD92hxkGcXl7jA-5" source="oY9YBYQD92hxkGcXl7jA-9" target="oY9YBYQD92hxkGcXl7jA-8" edge="1">
          <mxGeometry x="-0.4074" width="160" relative="1" as="geometry">
            <mxPoint x="270" y="170" as="sourcePoint" />
            <mxPoint x="400" y="260" as="targetPoint" />
            <Array as="points">
              <mxPoint x="210" y="50" />
              <mxPoint x="470" y="50" />
            </Array>
            <mxPoint as="offset" />
          </mxGeometry>
        </mxCell>
        <mxCell id="oY9YBYQD92hxkGcXl7jA-10" value="Cadastra&lt;br&gt;Especialidade&lt;br&gt;Médica" style="ellipse;whiteSpace=wrap;html=1;align=center;newEdgeStyle={&quot;edgeStyle&quot;:&quot;entityRelationEdgeStyle&quot;,&quot;startArrow&quot;:&quot;none&quot;,&quot;endArrow&quot;:&quot;none&quot;,&quot;segment&quot;:10,&quot;curved&quot;:1};treeFolding=1;treeMoving=1;" parent="oY9YBYQD92hxkGcXl7jA-5" vertex="1">
          <mxGeometry x="310" y="90" width="100" height="60" as="geometry" />
        </mxCell>
        <mxCell id="oY9YBYQD92hxkGcXl7jA-18" value="" style="endArrow=block;startArrow=none;endFill=0;startFill=0;endSize=8;html=1;verticalAlign=bottom;dashed=1;labelBackgroundColor=none;rounded=0;entryX=0;entryY=1;entryDx=0;entryDy=0;exitX=1;exitY=0.3333333333333333;exitDx=0;exitDy=0;exitPerimeter=0;" parent="oY9YBYQD92hxkGcXl7jA-1" source="oY9YBYQD92hxkGcXl7jA-2" target="oY9YBYQD92hxkGcXl7jA-6" edge="1">
          <mxGeometry width="160" relative="1" as="geometry">
            <mxPoint x="70" y="200" as="sourcePoint" />
            <mxPoint x="230" y="200" as="targetPoint" />
          </mxGeometry>
        </mxCell>
        <mxCell id="oY9YBYQD92hxkGcXl7jA-20" value="" style="endArrow=block;startArrow=none;endFill=0;startFill=0;endSize=8;html=1;verticalAlign=bottom;dashed=1;labelBackgroundColor=none;rounded=0;entryX=0;entryY=1;entryDx=0;entryDy=0;exitX=1;exitY=0.3333333333333333;exitDx=0;exitDy=0;exitPerimeter=0;" parent="oY9YBYQD92hxkGcXl7jA-1" source="oY9YBYQD92hxkGcXl7jA-2" target="oY9YBYQD92hxkGcXl7jA-9" edge="1">
          <mxGeometry width="160" relative="1" as="geometry">
            <mxPoint x="80" y="140" as="sourcePoint" />
            <mxPoint x="170" y="200" as="targetPoint" />
          </mxGeometry>
        </mxCell>
        <mxCell id="oY9YBYQD92hxkGcXl7jA-22" value="" style="endArrow=block;startArrow=none;endFill=0;startFill=0;endSize=8;html=1;verticalAlign=bottom;dashed=1;labelBackgroundColor=none;rounded=0;entryX=0;entryY=0.5;entryDx=0;entryDy=0;exitX=1;exitY=0.3333333333333333;exitDx=0;exitDy=0;exitPerimeter=0;" parent="oY9YBYQD92hxkGcXl7jA-1" source="oY9YBYQD92hxkGcXl7jA-2" target="oY9YBYQD92hxkGcXl7jA-7" edge="1">
          <mxGeometry width="160" relative="1" as="geometry">
            <mxPoint x="80" y="140" as="sourcePoint" />
            <mxPoint x="335" y="100" as="targetPoint" />
          </mxGeometry>
        </mxCell>
        <mxCell id="oY9YBYQD92hxkGcXl7jA-19" value="" style="endArrow=block;startArrow=none;endFill=0;startFill=0;endSize=8;html=1;verticalAlign=bottom;dashed=1;labelBackgroundColor=none;rounded=0;entryX=0;entryY=1;entryDx=0;entryDy=0;exitX=1;exitY=0.3333333333333333;exitDx=0;exitDy=0;exitPerimeter=0;" parent="oY9YBYQD92hxkGcXl7jA-1" source="oY9YBYQD92hxkGcXl7jA-2" target="oY9YBYQD92hxkGcXl7jA-10" edge="1">
          <mxGeometry width="160" relative="1" as="geometry">
            <mxPoint x="70" y="130" as="sourcePoint" />
            <mxPoint x="170" y="100" as="targetPoint" />
          </mxGeometry>
        </mxCell>
        <mxCell id="0yNhuezSmwmRU6mgANUv-1" value="" style="endArrow=block;startArrow=none;endFill=0;startFill=0;endSize=8;html=1;verticalAlign=bottom;dashed=1;labelBackgroundColor=none;rounded=0;entryX=0;entryY=0;entryDx=0;entryDy=0;exitX=1;exitY=0.3333333333333333;exitDx=0;exitDy=0;exitPerimeter=0;" edge="1" parent="oY9YBYQD92hxkGcXl7jA-1" source="oY9YBYQD92hxkGcXl7jA-2" target="oY9YBYQD92hxkGcXl7jA-8">
          <mxGeometry width="160" relative="1" as="geometry">
            <mxPoint x="60" y="270" as="sourcePoint" />
            <mxPoint x="235" y="380" as="targetPoint" />
          </mxGeometry>
        </mxCell>
        <mxCell id="0PBLPBcWrFO7Ismnn3im-1" value="* CRUD: Create, Read, Update, Delete" style="text;html=1;strokeColor=none;fillColor=none;align=center;verticalAlign=middle;whiteSpace=wrap;rounded=0;" parent="1" vertex="1">
          <mxGeometry x="110" y="520" width="630" height="30" as="geometry" />
        </mxCell>
      </root>
    </mxGraphModel>
  </diagram>
  <diagram name="Cad-Plano-Saude" id="T_cnKersPYIX8bRWeLpB">
    <mxGraphModel dx="1426" dy="739" grid="1" gridSize="10" guides="1" tooltips="1" connect="1" arrows="1" fold="1" page="1" pageScale="1" pageWidth="850" pageHeight="1100" math="0" shadow="0">
      <root>
        <mxCell id="fDNJ7AyMIo0dSmSkeILJ-0" />
        <mxCell id="fDNJ7AyMIo0dSmSkeILJ-1" parent="fDNJ7AyMIo0dSmSkeILJ-0" />
        <mxCell id="C0qJVE6773nrGns2ulc4-0" value="Módulo de Informações Cadastrais" style="swimlane;" parent="fDNJ7AyMIo0dSmSkeILJ-1" vertex="1">
          <mxGeometry x="100" y="40" width="650" height="480" as="geometry" />
        </mxCell>
        <mxCell id="C0qJVE6773nrGns2ulc4-1" value="Operator" style="shape=umlActor;verticalLabelPosition=bottom;verticalAlign=top;html=1;outlineConnect=0;" parent="C0qJVE6773nrGns2ulc4-0" vertex="1">
          <mxGeometry x="20" y="240" width="30" height="60" as="geometry" />
        </mxCell>
        <mxCell id="C0qJVE6773nrGns2ulc4-2" value="Caso de Uso: Cadastro de Plano de Saúde [CRUD]" style="swimlane;" parent="C0qJVE6773nrGns2ulc4-0" vertex="1">
          <mxGeometry x="70" y="30" width="570" height="440" as="geometry" />
        </mxCell>
        <mxCell id="C0qJVE6773nrGns2ulc4-7" value="Cadastra&lt;br&gt;Planos de&lt;br&gt;Saúde" style="ellipse;whiteSpace=wrap;html=1;align=center;newEdgeStyle={&quot;edgeStyle&quot;:&quot;entityRelationEdgeStyle&quot;,&quot;startArrow&quot;:&quot;none&quot;,&quot;endArrow&quot;:&quot;none&quot;,&quot;segment&quot;:10,&quot;curved&quot;:1};treeFolding=1;treeMoving=1;" parent="C0qJVE6773nrGns2ulc4-2" vertex="1">
          <mxGeometry x="205" y="270" width="100" height="60" as="geometry" />
        </mxCell>
        <mxCell id="C0qJVE6773nrGns2ulc4-8" value="Cadastra&lt;br&gt;Serviços&lt;br&gt;Cobertos" style="ellipse;whiteSpace=wrap;html=1;align=center;newEdgeStyle={&quot;edgeStyle&quot;:&quot;entityRelationEdgeStyle&quot;,&quot;startArrow&quot;:&quot;none&quot;,&quot;endArrow&quot;:&quot;none&quot;,&quot;segment&quot;:10,&quot;curved&quot;:1};treeFolding=1;treeMoving=1;" parent="C0qJVE6773nrGns2ulc4-2" vertex="1">
          <mxGeometry x="380" y="100" width="100" height="60" as="geometry" />
        </mxCell>
        <mxCell id="C0qJVE6773nrGns2ulc4-9" value="Cadastra Doenças Preexistentes" style="ellipse;whiteSpace=wrap;html=1;align=center;newEdgeStyle={&quot;edgeStyle&quot;:&quot;entityRelationEdgeStyle&quot;,&quot;startArrow&quot;:&quot;none&quot;,&quot;endArrow&quot;:&quot;none&quot;,&quot;segment&quot;:10,&quot;curved&quot;:1};treeFolding=1;treeMoving=1;" parent="C0qJVE6773nrGns2ulc4-2" vertex="1">
          <mxGeometry x="40" y="150" width="100" height="60" as="geometry" />
        </mxCell>
        <mxCell id="C0qJVE6773nrGns2ulc4-10" value="Cadastra Carências" style="ellipse;whiteSpace=wrap;html=1;align=center;newEdgeStyle={&quot;edgeStyle&quot;:&quot;entityRelationEdgeStyle&quot;,&quot;startArrow&quot;:&quot;none&quot;,&quot;endArrow&quot;:&quot;none&quot;,&quot;segment&quot;:10,&quot;curved&quot;:1};treeFolding=1;treeMoving=1;" parent="C0qJVE6773nrGns2ulc4-2" vertex="1">
          <mxGeometry x="205" y="100" width="100" height="60" as="geometry" />
        </mxCell>
        <mxCell id="C0qJVE6773nrGns2ulc4-17" value="Use" style="endArrow=open;endSize=12;dashed=1;html=1;rounded=0;exitX=0;exitY=1;exitDx=0;exitDy=0;entryX=1;entryY=0.5;entryDx=0;entryDy=0;" parent="C0qJVE6773nrGns2ulc4-2" source="C0qJVE6773nrGns2ulc4-10" target="C0qJVE6773nrGns2ulc4-9" edge="1">
          <mxGeometry width="160" relative="1" as="geometry">
            <mxPoint x="110" y="360" as="sourcePoint" />
            <mxPoint x="120" y="410" as="targetPoint" />
          </mxGeometry>
        </mxCell>
        <mxCell id="C0qJVE6773nrGns2ulc4-18" value="Use" style="endArrow=open;endSize=12;dashed=1;html=1;rounded=0;exitX=0;exitY=0.5;exitDx=0;exitDy=0;entryX=1;entryY=0.5;entryDx=0;entryDy=0;" parent="C0qJVE6773nrGns2ulc4-2" source="C0qJVE6773nrGns2ulc4-8" target="C0qJVE6773nrGns2ulc4-10" edge="1">
          <mxGeometry width="160" relative="1" as="geometry">
            <mxPoint x="290" y="420" as="sourcePoint" />
            <mxPoint x="280" y="400" as="targetPoint" />
          </mxGeometry>
        </mxCell>
        <mxCell id="C0qJVE6773nrGns2ulc4-19" value="Use" style="endArrow=open;endSize=12;dashed=1;html=1;rounded=0;exitX=1;exitY=0.5;exitDx=0;exitDy=0;entryX=0.5;entryY=1;entryDx=0;entryDy=0;" parent="C0qJVE6773nrGns2ulc4-2" source="C0qJVE6773nrGns2ulc4-7" target="C0qJVE6773nrGns2ulc4-8" edge="1">
          <mxGeometry width="160" relative="1" as="geometry">
            <mxPoint x="440" y="380" as="sourcePoint" />
            <mxPoint x="410" y="380" as="targetPoint" />
          </mxGeometry>
        </mxCell>
        <mxCell id="lfpuId4vG0WCzAN7M-Ej-0" value="Cadastra&lt;br&gt;Faixas&lt;br&gt;Etárias" style="ellipse;whiteSpace=wrap;html=1;align=center;newEdgeStyle={&quot;edgeStyle&quot;:&quot;entityRelationEdgeStyle&quot;,&quot;startArrow&quot;:&quot;none&quot;,&quot;endArrow&quot;:&quot;none&quot;,&quot;segment&quot;:10,&quot;curved&quot;:1};treeFolding=1;treeMoving=1;" vertex="1" parent="C0qJVE6773nrGns2ulc4-2">
          <mxGeometry x="40" y="40" width="100" height="60" as="geometry" />
        </mxCell>
        <mxCell id="lfpuId4vG0WCzAN7M-Ej-1" value="Use" style="endArrow=open;endSize=12;dashed=1;html=1;rounded=0;exitX=0;exitY=0;exitDx=0;exitDy=0;entryX=1;entryY=0.5;entryDx=0;entryDy=0;" edge="1" parent="C0qJVE6773nrGns2ulc4-2" source="C0qJVE6773nrGns2ulc4-10" target="lfpuId4vG0WCzAN7M-Ej-0">
          <mxGeometry width="160" relative="1" as="geometry">
            <mxPoint x="170" y="370" as="sourcePoint" />
            <mxPoint x="120" y="370" as="targetPoint" />
          </mxGeometry>
        </mxCell>
        <mxCell id="C0qJVE6773nrGns2ulc4-23" value="" style="endArrow=block;startArrow=none;endFill=0;startFill=0;endSize=8;html=1;verticalAlign=bottom;dashed=1;labelBackgroundColor=none;rounded=0;entryX=0;entryY=0.5;entryDx=0;entryDy=0;exitX=1;exitY=0.3333333333333333;exitDx=0;exitDy=0;exitPerimeter=0;" parent="C0qJVE6773nrGns2ulc4-0" source="C0qJVE6773nrGns2ulc4-1" edge="1">
          <mxGeometry width="160" relative="1" as="geometry">
            <mxPoint x="80" y="140" as="sourcePoint" />
            <mxPoint x="305" y="260" as="targetPoint" />
          </mxGeometry>
        </mxCell>
        <mxCell id="gk4BFaONYq_99QW46tr5-0" value="* CRUD: Create, Read, Update, Delete" style="text;html=1;strokeColor=none;fillColor=none;align=center;verticalAlign=middle;whiteSpace=wrap;rounded=0;" parent="fDNJ7AyMIo0dSmSkeILJ-1" vertex="1">
          <mxGeometry x="110" y="520" width="630" height="30" as="geometry" />
        </mxCell>
      </root>
    </mxGraphModel>
  </diagram>
  <diagram name="Cad-Prestador" id="Txa6Qm1HCIfDJLgXZJGI">
    <mxGraphModel dx="1426" dy="739" grid="1" gridSize="10" guides="1" tooltips="1" connect="1" arrows="1" fold="1" page="1" pageScale="1" pageWidth="850" pageHeight="1100" math="0" shadow="0">
      <root>
        <mxCell id="6JKmpgKGVvRsmmrupHXd-0" />
        <mxCell id="6JKmpgKGVvRsmmrupHXd-1" parent="6JKmpgKGVvRsmmrupHXd-0" />
        <mxCell id="6JKmpgKGVvRsmmrupHXd-2" value="Módulo de Informações Cadastrais" style="swimlane;" vertex="1" parent="6JKmpgKGVvRsmmrupHXd-1">
          <mxGeometry x="100" y="40" width="650" height="480" as="geometry" />
        </mxCell>
        <mxCell id="6JKmpgKGVvRsmmrupHXd-3" value="Operator" style="shape=umlActor;verticalLabelPosition=bottom;verticalAlign=top;html=1;outlineConnect=0;" vertex="1" parent="6JKmpgKGVvRsmmrupHXd-2">
          <mxGeometry x="20" y="240" width="30" height="60" as="geometry" />
        </mxCell>
        <mxCell id="6JKmpgKGVvRsmmrupHXd-4" value="Caso de Uso: Cadastro de Plano de Saúde [CRUD]" style="swimlane;" vertex="1" parent="6JKmpgKGVvRsmmrupHXd-2">
          <mxGeometry x="70" y="30" width="570" height="440" as="geometry" />
        </mxCell>
        <mxCell id="6JKmpgKGVvRsmmrupHXd-5" value="Cadastra Categoria de Pessoa" style="ellipse;whiteSpace=wrap;html=1;align=center;newEdgeStyle={&quot;edgeStyle&quot;:&quot;entityRelationEdgeStyle&quot;,&quot;startArrow&quot;:&quot;none&quot;,&quot;endArrow&quot;:&quot;none&quot;,&quot;segment&quot;:10,&quot;curved&quot;:1};treeFolding=1;treeMoving=1;" vertex="1" parent="6JKmpgKGVvRsmmrupHXd-4">
          <mxGeometry x="10" y="90" width="100" height="60" as="geometry" />
        </mxCell>
        <mxCell id="6JKmpgKGVvRsmmrupHXd-6" value="Cadastra&lt;br&gt;Pessoa" style="ellipse;whiteSpace=wrap;html=1;align=center;newEdgeStyle={&quot;edgeStyle&quot;:&quot;entityRelationEdgeStyle&quot;,&quot;startArrow&quot;:&quot;none&quot;,&quot;endArrow&quot;:&quot;none&quot;,&quot;segment&quot;:10,&quot;curved&quot;:1};treeFolding=1;treeMoving=1;" vertex="1" parent="6JKmpgKGVvRsmmrupHXd-4">
          <mxGeometry x="235" y="200" width="100" height="60" as="geometry" />
        </mxCell>
        <mxCell id="6JKmpgKGVvRsmmrupHXd-7" value="Cadastra&lt;br&gt;Perfil" style="ellipse;whiteSpace=wrap;html=1;align=center;newEdgeStyle={&quot;edgeStyle&quot;:&quot;entityRelationEdgeStyle&quot;,&quot;startArrow&quot;:&quot;none&quot;,&quot;endArrow&quot;:&quot;none&quot;,&quot;segment&quot;:10,&quot;curved&quot;:1};treeFolding=1;treeMoving=1;" vertex="1" parent="6JKmpgKGVvRsmmrupHXd-4">
          <mxGeometry x="460" y="90" width="100" height="60" as="geometry" />
        </mxCell>
        <mxCell id="6JKmpgKGVvRsmmrupHXd-8" value="Cadastra&lt;br&gt;Localidade" style="ellipse;whiteSpace=wrap;html=1;align=center;newEdgeStyle={&quot;edgeStyle&quot;:&quot;entityRelationEdgeStyle&quot;,&quot;startArrow&quot;:&quot;none&quot;,&quot;endArrow&quot;:&quot;none&quot;,&quot;segment&quot;:10,&quot;curved&quot;:1};treeFolding=1;treeMoving=1;" vertex="1" parent="6JKmpgKGVvRsmmrupHXd-4">
          <mxGeometry x="160" y="90" width="100" height="60" as="geometry" />
        </mxCell>
        <mxCell id="6JKmpgKGVvRsmmrupHXd-9" value="Cadastra&lt;br&gt;Planos de&lt;br&gt;Saúde" style="ellipse;whiteSpace=wrap;html=1;align=center;newEdgeStyle={&quot;edgeStyle&quot;:&quot;entityRelationEdgeStyle&quot;,&quot;startArrow&quot;:&quot;none&quot;,&quot;endArrow&quot;:&quot;none&quot;,&quot;segment&quot;:10,&quot;curved&quot;:1};treeFolding=1;treeMoving=1;" vertex="1" parent="6JKmpgKGVvRsmmrupHXd-4">
          <mxGeometry x="460" y="330" width="100" height="60" as="geometry" />
        </mxCell>
        <mxCell id="6JKmpgKGVvRsmmrupHXd-10" value="Cadastra&lt;br&gt;Serviços&lt;br&gt;Cobertos" style="ellipse;whiteSpace=wrap;html=1;align=center;newEdgeStyle={&quot;edgeStyle&quot;:&quot;entityRelationEdgeStyle&quot;,&quot;startArrow&quot;:&quot;none&quot;,&quot;endArrow&quot;:&quot;none&quot;,&quot;segment&quot;:10,&quot;curved&quot;:1};treeFolding=1;treeMoving=1;" vertex="1" parent="6JKmpgKGVvRsmmrupHXd-4">
          <mxGeometry x="310" y="330" width="100" height="60" as="geometry" />
        </mxCell>
        <mxCell id="6JKmpgKGVvRsmmrupHXd-11" value="Cadastra Doenças Preexistentes" style="ellipse;whiteSpace=wrap;html=1;align=center;newEdgeStyle={&quot;edgeStyle&quot;:&quot;entityRelationEdgeStyle&quot;,&quot;startArrow&quot;:&quot;none&quot;,&quot;endArrow&quot;:&quot;none&quot;,&quot;segment&quot;:10,&quot;curved&quot;:1};treeFolding=1;treeMoving=1;" vertex="1" parent="6JKmpgKGVvRsmmrupHXd-4">
          <mxGeometry x="10" y="330" width="100" height="60" as="geometry" />
        </mxCell>
        <mxCell id="6JKmpgKGVvRsmmrupHXd-12" value="Cadastra Carências" style="ellipse;whiteSpace=wrap;html=1;align=center;newEdgeStyle={&quot;edgeStyle&quot;:&quot;entityRelationEdgeStyle&quot;,&quot;startArrow&quot;:&quot;none&quot;,&quot;endArrow&quot;:&quot;none&quot;,&quot;segment&quot;:10,&quot;curved&quot;:1};treeFolding=1;treeMoving=1;" vertex="1" parent="6JKmpgKGVvRsmmrupHXd-4">
          <mxGeometry x="160" y="330" width="100" height="60" as="geometry" />
        </mxCell>
        <mxCell id="6JKmpgKGVvRsmmrupHXd-13" value="Use" style="endArrow=open;endSize=12;dashed=1;html=1;rounded=0;exitX=0.5;exitY=0;exitDx=0;exitDy=0;entryX=0.5;entryY=0;entryDx=0;entryDy=0;" edge="1" parent="6JKmpgKGVvRsmmrupHXd-4" source="6JKmpgKGVvRsmmrupHXd-5" target="6JKmpgKGVvRsmmrupHXd-7">
          <mxGeometry x="0.0182" width="160" relative="1" as="geometry">
            <mxPoint x="350" y="50" as="sourcePoint" />
            <mxPoint x="400" y="230" as="targetPoint" />
            <Array as="points">
              <mxPoint x="60" y="30" />
              <mxPoint x="510" y="30" />
            </Array>
            <mxPoint as="offset" />
          </mxGeometry>
        </mxCell>
        <mxCell id="6JKmpgKGVvRsmmrupHXd-14" value="Use" style="endArrow=open;endSize=12;dashed=1;html=1;rounded=0;exitX=0.5;exitY=0;exitDx=0;exitDy=0;entryX=0.5;entryY=0;entryDx=0;entryDy=0;" edge="1" parent="6JKmpgKGVvRsmmrupHXd-4" source="6JKmpgKGVvRsmmrupHXd-17" target="6JKmpgKGVvRsmmrupHXd-7">
          <mxGeometry width="160" relative="1" as="geometry">
            <mxPoint x="260" y="160" as="sourcePoint" />
            <mxPoint x="390" y="250" as="targetPoint" />
            <Array as="points">
              <mxPoint x="360" y="70" />
              <mxPoint x="510" y="70" />
            </Array>
          </mxGeometry>
        </mxCell>
        <mxCell id="6JKmpgKGVvRsmmrupHXd-15" value="Use" style="endArrow=open;endSize=12;dashed=1;html=1;rounded=0;startArrow=none;exitX=0.5;exitY=1;exitDx=0;exitDy=0;entryX=1;entryY=0;entryDx=0;entryDy=0;" edge="1" parent="6JKmpgKGVvRsmmrupHXd-4" source="6JKmpgKGVvRsmmrupHXd-7" target="6JKmpgKGVvRsmmrupHXd-6">
          <mxGeometry width="160" relative="1" as="geometry">
            <mxPoint x="200" y="280" as="sourcePoint" />
            <mxPoint x="330" y="170" as="targetPoint" />
          </mxGeometry>
        </mxCell>
        <mxCell id="6JKmpgKGVvRsmmrupHXd-16" value="Use" style="endArrow=open;endSize=12;dashed=1;html=1;rounded=0;exitX=0.5;exitY=0;exitDx=0;exitDy=0;entryX=0.5;entryY=0;entryDx=0;entryDy=0;" edge="1" parent="6JKmpgKGVvRsmmrupHXd-4" source="6JKmpgKGVvRsmmrupHXd-8" target="6JKmpgKGVvRsmmrupHXd-7">
          <mxGeometry x="-0.0117" width="160" relative="1" as="geometry">
            <mxPoint x="270" y="170" as="sourcePoint" />
            <mxPoint x="400" y="260" as="targetPoint" />
            <Array as="points">
              <mxPoint x="210" y="50" />
              <mxPoint x="510" y="50" />
            </Array>
            <mxPoint as="offset" />
          </mxGeometry>
        </mxCell>
        <mxCell id="6JKmpgKGVvRsmmrupHXd-17" value="Cadastra&lt;br&gt;Especialidade&lt;br&gt;Médica" style="ellipse;whiteSpace=wrap;html=1;align=center;newEdgeStyle={&quot;edgeStyle&quot;:&quot;entityRelationEdgeStyle&quot;,&quot;startArrow&quot;:&quot;none&quot;,&quot;endArrow&quot;:&quot;none&quot;,&quot;segment&quot;:10,&quot;curved&quot;:1};treeFolding=1;treeMoving=1;" vertex="1" parent="6JKmpgKGVvRsmmrupHXd-4">
          <mxGeometry x="310" y="90" width="100" height="60" as="geometry" />
        </mxCell>
        <mxCell id="6JKmpgKGVvRsmmrupHXd-18" value="" style="endArrow=block;startArrow=none;endFill=0;startFill=0;endSize=8;html=1;verticalAlign=bottom;dashed=1;labelBackgroundColor=none;rounded=0;exitX=1;exitY=0.5;exitDx=0;exitDy=0;entryX=0.5;entryY=1;entryDx=0;entryDy=0;" edge="1" parent="6JKmpgKGVvRsmmrupHXd-4" source="6JKmpgKGVvRsmmrupHXd-6" target="6JKmpgKGVvRsmmrupHXd-7">
          <mxGeometry width="160" relative="1" as="geometry">
            <mxPoint x="230" y="110" as="sourcePoint" />
            <mxPoint x="490" y="170" as="targetPoint" />
            <Array as="points">
              <mxPoint x="510" y="230" />
            </Array>
          </mxGeometry>
        </mxCell>
        <mxCell id="6JKmpgKGVvRsmmrupHXd-19" value="Use" style="endArrow=open;endSize=12;dashed=1;html=1;rounded=0;exitX=0;exitY=0.5;exitDx=0;exitDy=0;entryX=1;entryY=0.5;entryDx=0;entryDy=0;" edge="1" parent="6JKmpgKGVvRsmmrupHXd-4" source="6JKmpgKGVvRsmmrupHXd-12" target="6JKmpgKGVvRsmmrupHXd-11">
          <mxGeometry width="160" relative="1" as="geometry">
            <mxPoint x="110" y="360" as="sourcePoint" />
            <mxPoint x="120" y="410" as="targetPoint" />
          </mxGeometry>
        </mxCell>
        <mxCell id="6JKmpgKGVvRsmmrupHXd-20" value="Use" style="endArrow=open;endSize=12;dashed=1;html=1;rounded=0;exitX=0;exitY=0.5;exitDx=0;exitDy=0;entryX=1;entryY=0.5;entryDx=0;entryDy=0;" edge="1" parent="6JKmpgKGVvRsmmrupHXd-4" source="6JKmpgKGVvRsmmrupHXd-10" target="6JKmpgKGVvRsmmrupHXd-12">
          <mxGeometry width="160" relative="1" as="geometry">
            <mxPoint x="290" y="420" as="sourcePoint" />
            <mxPoint x="280" y="400" as="targetPoint" />
          </mxGeometry>
        </mxCell>
        <mxCell id="6JKmpgKGVvRsmmrupHXd-21" value="Use" style="endArrow=open;endSize=12;dashed=1;html=1;rounded=0;exitX=0;exitY=0.5;exitDx=0;exitDy=0;entryX=1;entryY=0.5;entryDx=0;entryDy=0;" edge="1" parent="6JKmpgKGVvRsmmrupHXd-4" source="6JKmpgKGVvRsmmrupHXd-9" target="6JKmpgKGVvRsmmrupHXd-10">
          <mxGeometry width="160" relative="1" as="geometry">
            <mxPoint x="440" y="380" as="sourcePoint" />
            <mxPoint x="410" y="380" as="targetPoint" />
          </mxGeometry>
        </mxCell>
        <mxCell id="6JKmpgKGVvRsmmrupHXd-22" value="Use" style="endArrow=open;endSize=12;dashed=1;html=1;rounded=0;entryX=1;entryY=1;entryDx=0;entryDy=0;startArrow=none;exitX=0.43;exitY=0;exitDx=0;exitDy=0;exitPerimeter=0;" edge="1" parent="6JKmpgKGVvRsmmrupHXd-4" source="6JKmpgKGVvRsmmrupHXd-9" target="6JKmpgKGVvRsmmrupHXd-6">
          <mxGeometry width="160" relative="1" as="geometry">
            <mxPoint x="555.3553390593272" y="161.21320343559637" as="sourcePoint" />
            <mxPoint x="345" y="280" as="targetPoint" />
          </mxGeometry>
        </mxCell>
        <mxCell id="6JKmpgKGVvRsmmrupHXd-23" value="" style="endArrow=block;startArrow=none;endFill=0;startFill=0;endSize=8;html=1;verticalAlign=bottom;dashed=1;labelBackgroundColor=none;rounded=0;entryX=0;entryY=0.5;entryDx=0;entryDy=0;exitX=1;exitY=0.3333333333333333;exitDx=0;exitDy=0;exitPerimeter=0;" edge="1" parent="6JKmpgKGVvRsmmrupHXd-2" source="6JKmpgKGVvRsmmrupHXd-3" target="6JKmpgKGVvRsmmrupHXd-6">
          <mxGeometry width="160" relative="1" as="geometry">
            <mxPoint x="80" y="140" as="sourcePoint" />
            <mxPoint x="335" y="100" as="targetPoint" />
          </mxGeometry>
        </mxCell>
        <mxCell id="6JKmpgKGVvRsmmrupHXd-24" value="* CRUD: Create, Read, Update, Delete" style="text;html=1;strokeColor=none;fillColor=none;align=center;verticalAlign=middle;whiteSpace=wrap;rounded=0;" vertex="1" parent="6JKmpgKGVvRsmmrupHXd-1">
          <mxGeometry x="110" y="520" width="630" height="30" as="geometry" />
        </mxCell>
      </root>
    </mxGraphModel>
  </diagram>
</mxfile>
